<svg width="20" height="18" viewBox="0 0 20 18" fill="none" xmlns="http://www.w3.org/2000/svg">
<path d="M10.0098 0.25C10.5566 0.25 11.0645 0.5625 11.3379 1.03125L19.7754 15.4062C20.0488 15.9141 20.0488 16.5 19.7754 16.9688C19.502 17.4766 18.9941 17.75 18.4473 17.75H1.57227C0.986328 17.75 0.478516 17.4766 0.205078 16.9688C-0.0683594 16.5 -0.0683594 15.9141 0.205078 15.4062L8.64258 1.03125C8.91602 0.5625 9.42383 0.25 10.0098 0.25ZM10.0098 5.25C9.46289 5.25 9.07227 5.67969 9.07227 6.1875V10.5625C9.07227 11.1094 9.46289 11.5 10.0098 11.5C10.5176 11.5 10.9473 11.1094 10.9473 10.5625V6.1875C10.9473 5.67969 10.5176 5.25 10.0098 5.25ZM11.2598 14C11.2598 13.3359 10.6738 12.75 10.0098 12.75C9.30664 12.75 8.75977 13.3359 8.75977 14C8.75977 14.7031 9.30664 15.25 10.0098 15.25C10.6738 15.25 11.2598 14.7031 11.2598 14Z" fill="#36434E"/>
</svg>
