<svg width="20" height="20" viewBox="0 0 20 20" fill="none" xmlns="http://www.w3.org/2000/svg">
<path d="M5.46875 0.820312C6.01562 0.273438 6.71875 0 7.46094 0H12.5C13.2422 0 13.9453 0.273438 14.4922 0.820312L19.1406 5.46875C19.6875 6.01562 19.9609 6.71875 19.9609 7.46094V12.5C19.9609 13.2422 19.6875 13.9453 19.1406 14.4922L14.4922 19.1406C13.9453 19.6875 13.2422 19.9609 12.5 19.9609H7.46094C6.71875 19.9609 6.01562 19.6875 5.46875 19.1406L0.820312 14.4922C0.273438 13.9453 0 13.2422 0 12.5V7.46094C0 6.71875 0.273438 6.01562 0.820312 5.46875L5.46875 0.820312ZM10 4.96094C9.45312 4.96094 9.0625 5.39062 9.0625 5.89844V10.2734C9.0625 10.8203 9.45312 11.2109 10 11.2109C10.5078 11.2109 10.9375 10.8203 10.9375 10.2734V5.89844C10.9375 5.39062 10.5078 4.96094 10 4.96094ZM11.25 13.7109C11.25 13.0469 10.6641 12.4609 10 12.4609C9.29688 12.4609 8.75 13.0469 8.75 13.7109C8.75 14.4141 9.29688 14.9609 10 14.9609C10.6641 14.9609 11.25 14.4141 11.25 13.7109Z" fill="#002F6C"/>
</svg>
