<svg width="19" height="19" viewBox="0 0 19 19" fill="none" xmlns="http://www.w3.org/2000/svg">
<path d="M9.49967 1.58337C5.12176 1.58337 1.58301 5.12212 1.58301 9.50004C1.58301 13.878 5.12176 17.4167 9.49967 17.4167C13.8776 17.4167 17.4163 13.878 17.4163 9.50004C17.4163 5.12212 13.8776 1.58337 9.49967 1.58337ZM9.49967 15.8334C6.00842 15.8334 3.16634 12.9913 3.16634 9.50004C3.16634 6.00879 6.00842 3.16671 9.49967 3.16671C12.9909 3.16671 15.833 6.00879 15.833 9.50004C15.833 12.9913 12.9909 15.8334 9.49967 15.8334ZM12.3418 5.54171L9.49967 8.38379L6.65759 5.54171L5.54134 6.65796L8.38342 9.50004L5.54134 12.3421L6.65759 13.4584L9.49967 10.6163L12.3418 13.4584L13.458 12.3421L10.6159 9.50004L13.458 6.65796L12.3418 5.54171Z" fill="#C21405"/>
</svg>
