<svg width="19" height="19" viewBox="0 0 19 19" fill="none" xmlns="http://www.w3.org/2000/svg">
<path d="M9.49967 1.58333C5.12176 1.58333 1.58301 5.12208 1.58301 9.49999C1.58301 13.8779 5.12176 17.4167 9.49967 17.4167C13.8776 17.4167 17.4163 13.8779 17.4163 9.49999C17.4163 5.12208 13.8776 1.58333 9.49967 1.58333ZM9.49967 15.8333C6.00842 15.8333 3.16634 12.9912 3.16634 9.49999C3.16634 6.00874 6.00842 3.16666 9.49967 3.16666C12.9909 3.16666 15.833 6.00874 15.833 9.49999C15.833 12.9912 12.9909 15.8333 9.49967 15.8333ZM12.3418 5.54166L9.49967 8.38374L6.65759 5.54166L5.54134 6.65791L8.38342 9.49999L5.54134 12.3421L6.65759 13.4583L9.49967 10.6162L12.3418 13.4583L13.458 12.3421L10.6159 9.49999L13.458 6.65791L12.3418 5.54166Z" fill="#C21405"/>
</svg>
