<svg width="19" height="19" viewBox="0 0 19 19" fill="none" xmlns="http://www.w3.org/2000/svg">
<path d="M15.7188 14.4812C16.0563 14.8562 16.0563 15.4187 15.7188 15.7562C15.3438 16.1312 14.7813 16.1312 14.4438 15.7562L10.0188 11.2937L5.55625 15.7562C5.18125 16.1312 4.61875 16.1312 4.28125 15.7562C3.90625 15.4187 3.90625 14.8562 4.28125 14.4812L8.74375 10.0187L4.28125 5.55625C3.90625 5.18125 3.90625 4.61875 4.28125 4.28125C4.61875 3.90625 5.18125 3.90625 5.51875 4.28125L10.0188 8.78125L14.4813 4.31875C14.8188 3.94375 15.3813 3.94375 15.7188 4.31875C16.0938 4.65625 16.0938 5.21875 15.7188 5.59375L11.2563 10.0187L15.7188 14.4812Z" fill="#0069F0"/>
</svg>
