<svg width="19" height="19" viewBox="0 0 19 19" fill="none" xmlns="http://www.w3.org/2000/svg">
<path d="M15.5714 1C16.8996 1 18 2.10045 18 3.42857V15.5714C18 16.9375 16.8996 18 15.5714 18H3.42857C2.0625 18 1 16.9375 1 15.5714V3.42857C1 2.10045 2.0625 1 3.42857 1H15.5714ZM15.5714 2.82143H3.42857C3.08705 2.82143 2.82143 3.125 2.82143 3.42857V15.5714C2.82143 15.9129 3.08705 16.1786 3.42857 16.1786H15.5714C15.875 16.1786 16.1786 15.9129 16.1786 15.5714V3.42857C16.1786 3.125 15.875 2.82143 15.5714 2.82143Z" fill="#0069F0"/>
</svg>
