<svg width="19" height="19" viewBox="0 0 19 19" fill="none" xmlns="http://www.w3.org/2000/svg">
<path d="M3.42857 1H15.5714C16.8996 1 18 2.10045 18 3.42857V15.5714C18 16.9375 16.8996 18 15.5714 18H3.42857C2.0625 18 1 16.9375 1 15.5714V3.42857C1 2.10045 2.0625 1 3.42857 1ZM13.7879 7.71652H13.75C14.1295 7.375 14.1295 6.8058 13.75 6.42634C13.4085 6.08482 12.8393 6.08482 12.4978 6.42634L8.28571 10.6763L6.50223 8.89286C6.12277 8.51339 5.55357 8.51339 5.21205 8.89286C4.83259 9.23438 4.83259 9.80357 5.21205 10.1451L7.64062 12.5737C7.98214 12.9531 8.55134 12.9531 8.9308 12.5737L13.7879 7.71652Z" fill="#0069F0"/>
</svg>
