<svg width="19" height="38" viewBox="0 0 19 38" fill="none" xmlns="http://www.w3.org/2000/svg">
<path d="M12.2165 12.4769C12.8524 11.841 13.8952 11.841 14.5311 12.4769L15.5231 13.4689C16.159 14.1048 16.159 15.1476 15.5231 15.7835L14.3022 17.0044L10.9956 13.6978L12.2165 12.4769ZM10.4106 14.2828L13.7172 17.5894L7.79075 23.5158C7.53639 23.7702 7.20573 23.9737 6.84964 24.0754L3.77196 24.9911C3.56848 25.042 3.33956 24.9911 3.18695 24.8131C3.0089 24.6604 2.95803 24.4315 3.03434 24.228L3.92457 21.1504C4.02632 20.7943 4.2298 20.4636 4.48415 20.2093L10.4106 14.2828Z" fill="#0069F0"/>
</svg>
