<svg width="22" height="20" viewBox="0 0 22 20" fill="none" xmlns="http://www.w3.org/2000/svg">
<path d="M10.957 4.25C11.3438 4.25 11.6875 4.59375 11.6875 4.9375V10.4375C11.6875 10.8242 11.3438 11.125 10.957 11.125C10.6133 11.125 10.2695 10.8242 10.2695 10.4375V4.9375C10.2695 4.59375 10.6133 4.25 10.957 4.25ZM12.0312 13.875C12.0312 14.4766 11.5586 14.9062 10.957 14.9062C10.3984 14.9062 9.92578 14.4766 9.92578 13.875C9.92578 13.3164 10.3984 12.8438 10.957 12.8438C11.5586 12.8438 12.0312 13.3164 12.0312 13.875ZM7.26172 0.125H14.6953C15.7695 0.125 16.7578 0.726562 17.3164 1.62891L21.3125 8.16016C21.9141 9.14844 21.9141 10.3945 21.3125 11.3828L17.3164 17.9141C16.7578 18.8164 15.7695 19.375 14.6953 19.375H7.26172C6.1875 19.375 5.19922 18.8164 4.64062 17.9141L0.644531 11.3828C0.0429688 10.3945 0.0429688 9.14844 0.644531 8.16016L4.64062 1.62891C5.19922 0.726562 6.1875 0.125 7.26172 0.125ZM1.84766 8.89062C1.50391 9.40625 1.50391 10.0938 1.84766 10.6523L5.80078 17.1836C6.14453 17.6992 6.70312 18 7.26172 18H14.6953C15.2539 18 15.8125 17.6992 16.1562 17.1836L20.1094 10.6523C20.4531 10.0938 20.4531 9.40625 20.1094 8.89062L16.1562 2.35938C15.8125 1.84375 15.2539 1.5 14.6953 1.5H7.26172C6.70312 1.5 6.14453 1.84375 5.80078 2.35938L1.84766 8.89062Z" fill="#C21405"/>
</svg>
