<svg width="18" height="16" viewBox="0 0 18 16" fill="none" xmlns="http://www.w3.org/2000/svg">
<path d="M8 14.7692C5.78462 14.7692 3.63077 13.6615 2.33846 11.6923H5.53846V10.4615H0.615385V15.3846H1.84615V13.1077C3.38462 14.9538 5.6 16 8 16V14.7692ZM10.4615 4.30769H13.6615C11.6308 1.16923 7.44615 0.307692 4.30769 2.33846C2.4 3.56923 1.23077 5.72308 1.23077 8H0C0 3.56923 3.56923 0 8 0C10.4 0 12.6154 1.04615 14.1538 2.89231V0.615385H15.3846V5.53846H10.4615V4.30769Z" fill="#36434E"/>
<path d="M16.9231 9.19841H15.5385V8.29153C15.5385 7.79138 15.1245 7.38464 14.6154 7.38464H11.8462C11.3371 7.38464 10.9231 7.79138 10.9231 8.29153V9.19841H9.53846C9.02939 9.19841 8.61539 9.60515 8.61539 10.1053V11.4656H17.8462V10.1053C17.8462 9.60515 17.4322 9.19841 16.9231 9.19841ZM11.8462 8.29153H14.6154V9.19841H11.8462V8.29153ZM14.1538 12.8259H12.3077V11.9191H8.61539V15.0931C8.61539 15.5933 9.02939 16 9.53846 16H16.9231C17.4322 16 17.8462 15.5933 17.8462 15.0931V11.9191H14.1538V12.8259Z" fill="#36434E"/>
</svg>
