<svg width="18" height="17" viewBox="0 0 18 17" fill="none" xmlns="http://www.w3.org/2000/svg">
<path d="M8 15.2785C5.78462 15.2785 3.63077 14.1326 2.33846 12.0955H5.53846V10.8223H0.615385V15.9151H1.84615V13.5597C3.38462 15.4695 5.6 16.5517 8 16.5517V15.2785ZM10.4615 4.45623H13.6615C11.6308 1.20955 7.44615 0.318303 4.30769 2.4191C2.4 3.69231 1.23077 5.92042 1.23077 8.27586H0C0 3.69231 3.56923 0 8 0C10.4 0 12.6154 1.08223 14.1538 2.99204V0.636605H15.3846V5.72944H10.4615V4.45623Z" fill="black"/>
<path d="M16.9229 9.51559H15.5383V8.57744C15.5383 8.06004 15.1243 7.63928 14.6152 7.63928H11.846C11.3369 7.63928 10.9229 8.06004 10.9229 8.57744V9.51559H9.53831C9.02923 9.51559 8.61523 9.93635 8.61523 10.4537V11.861H17.846V10.4537C17.846 9.93635 17.432 9.51559 16.9229 9.51559ZM11.846 8.57744H14.6152V9.51559H11.846V8.57744ZM14.1537 13.2682H12.3075V12.3301H8.61523V15.6136C8.61523 16.131 9.02923 16.5517 9.53831 16.5517H16.9229C17.432 16.5517 17.846 16.131 17.846 15.6136V12.3301H14.1537V13.2682Z" fill="black"/>
</svg>
