<svg width="18" height="19" viewBox="0 0 18 19" fill="none" xmlns="http://www.w3.org/2000/svg">
<path d="M0 0.75H17.5V18.25H0V0.75ZM3.75 10.75C4.41406 10.75 5 10.2031 5 9.5C5 8.83594 4.41406 8.25 3.75 8.25C3.04688 8.25 2.5 8.83594 2.5 9.5C2.5 10.2031 3.04688 10.75 3.75 10.75ZM5 5.75C5 5.08594 4.41406 4.5 3.75 4.5C3.04688 4.5 2.5 5.08594 2.5 5.75C2.5 6.45312 3.04688 7 3.75 7C4.41406 7 5 6.45312 5 5.75ZM3.75 14.5C4.41406 14.5 5 13.9531 5 13.25C5 12.5859 4.41406 12 3.75 12C3.04688 12 2.5 12.5859 2.5 13.25C2.5 13.9531 3.04688 14.5 3.75 14.5ZM6.5625 4.8125V6.6875H14.6875V4.8125H6.5625ZM6.5625 8.5625V10.4375H14.6875V8.5625H6.5625ZM6.5625 12.3125V14.1875H14.6875V12.3125H6.5625Z" fill="#002F6C"/>
</svg>
