<svg width="20" height="21" viewBox="0 0 20 21" fill="none" xmlns="http://www.w3.org/2000/svg">
<path d="M17.5 5.5C16.6016 5.5 15.7812 5.03125 15.3125 4.25C14.8828 3.50781 14.8828 2.53125 15.3125 1.75C15.7812 1.00781 16.6016 0.5 17.5 0.5C18.3594 0.5 19.1797 1.00781 19.6484 1.75C20.0781 2.53125 20.0781 3.50781 19.6484 4.25C19.1797 5.03125 18.3594 5.5 17.5 5.5ZM5 1.75H10V1.20312C10 0.8125 10.3125 0.5 10.6641 0.5C10.8203 0.5 10.9766 0.578125 11.0938 0.65625L13.4766 2.53125C13.6328 2.64844 13.75 2.80469 13.75 3C13.75 3.19531 13.6328 3.39062 13.4766 3.50781L11.0938 5.38281C10.9766 5.46094 10.8203 5.5 10.6641 5.5C10.3125 5.5 10 5.1875 10 4.83594V4.25H5C3.59375 4.25 2.5 5.38281 2.5 6.75C2.5 8.15625 3.59375 9.25 5 9.25H15C17.7344 9.25 20 11.5156 20 14.25C20 16.7109 18.2422 18.7422 15.9375 19.1719C15.5469 19.9531 14.6875 20.5 13.75 20.5C12.3438 20.5 11.25 19.4062 11.25 18C11.25 16.6328 12.3438 15.5 13.75 15.5C14.6094 15.5 15.3516 15.9688 15.8203 16.6328C16.7969 16.2812 17.5 15.3438 17.5 14.25C17.5 12.8828 16.3672 11.75 15 11.75H5C2.22656 11.75 0 9.52344 0 6.75C0 4.01562 2.22656 1.75 5 1.75ZM4.64844 16.75H6.25V16.2031C6.25 15.8125 6.5625 15.5 6.91406 15.5C7.07031 15.5 7.22656 15.5781 7.34375 15.6562L9.72656 17.5312C9.88281 17.6484 10 17.8047 10 18C10 18.1953 9.88281 18.3906 9.72656 18.5078L7.34375 20.3828C7.22656 20.4609 7.07031 20.5 6.91406 20.5C6.5625 20.5 6.25 20.1875 6.25 19.8359V19.25H4.64844C4.21875 20.0312 3.39844 20.5 2.5 20.5C1.09375 20.5 0 19.4062 0 18C0 16.6328 1.09375 15.5 2.5 15.5C3.39844 15.5 4.21875 16.0078 4.64844 16.75Z" fill="#0069F0"/>
</svg>
