<svg width="19" height="19" viewBox="0 0 19 19" fill="none" xmlns="http://www.w3.org/2000/svg">
<path d="M17.375 4.99995C17.375 4.40321 17.1379 3.83092 16.716 3.40896C16.294 2.987 15.7217 2.74995 15.125 2.74995H14.5625V2.20327C14.5625 1.90057 14.3298 1.64077 14.0271 1.62565C13.951 1.62199 13.875 1.6338 13.8037 1.66038C13.7323 1.68696 13.6671 1.72775 13.612 1.78028C13.5568 1.8328 13.5129 1.89598 13.483 1.96597C13.453 2.03596 13.4375 2.11131 13.4375 2.18745V2.74995H5.5625V2.20327C5.5625 1.90057 5.32977 1.64077 5.02707 1.62565C4.95102 1.62199 4.87501 1.6338 4.80365 1.66038C4.7323 1.68696 4.66708 1.72775 4.61196 1.78028C4.55684 1.8328 4.51295 1.89598 4.48296 1.96597C4.45297 2.03596 4.43751 2.11131 4.4375 2.18745V2.74995H3.875C3.27826 2.74995 2.70597 2.987 2.28401 3.40896C1.86205 3.83092 1.625 4.40321 1.625 4.99995V5.42182C1.625 5.45912 1.63982 5.49489 1.66619 5.52126C1.69256 5.54763 1.72833 5.56245 1.76562 5.56245H17.2344C17.2717 5.56245 17.3074 5.54763 17.3338 5.52126C17.3602 5.49489 17.375 5.45912 17.375 5.42182V4.99995ZM1.625 15.1249C1.625 15.7217 1.86205 16.294 2.28401 16.7159C2.70597 17.1379 3.27826 17.3749 3.875 17.3749H15.125C15.7217 17.3749 16.294 17.1379 16.716 16.7159C17.1379 16.294 17.375 15.7217 17.375 15.1249V6.79292C17.375 6.76495 17.3639 6.73812 17.3441 6.71834C17.3243 6.69856 17.2975 6.68745 17.2695 6.68745H1.73047C1.7025 6.68745 1.67567 6.69856 1.65589 6.71834C1.63611 6.73812 1.625 6.76495 1.625 6.79292V15.1249ZM13.7188 7.81245C13.8856 7.81245 14.0488 7.86193 14.1875 7.95465C14.3263 8.04736 14.4344 8.17913 14.4983 8.33331C14.5621 8.48748 14.5788 8.65713 14.5463 8.82081C14.5137 8.98448 14.4334 9.13482 14.3154 9.25282C14.1974 9.37082 14.047 9.45118 13.8834 9.48374C13.7197 9.51629 13.55 9.49958 13.3959 9.43572C13.2417 9.37186 13.1099 9.26371 13.0172 9.12496C12.9245 8.98621 12.875 8.82308 12.875 8.6562C12.875 8.43242 12.9639 8.21781 13.1221 8.05958C13.2804 7.90134 13.495 7.81245 13.7188 7.81245ZM13.7188 10.6249C13.8856 10.6249 14.0488 10.6744 14.1875 10.7671C14.3263 10.8599 14.4344 10.9916 14.4983 11.1458C14.5621 11.3 14.5788 11.4696 14.5463 11.6333C14.5137 11.797 14.4334 11.9473 14.3154 12.0653C14.1974 12.1833 14.047 12.2637 13.8834 12.2962C13.7197 12.3288 13.55 12.3121 13.3959 12.2482C13.2417 12.1844 13.1099 12.0762 13.0172 11.9375C12.9245 11.7987 12.875 11.6356 12.875 11.4687C12.875 11.2449 12.9639 11.0303 13.1221 10.8721C13.2804 10.7138 13.495 10.6249 13.7188 10.6249ZM10.9062 7.81245C11.0731 7.81245 11.2363 7.86193 11.375 7.95465C11.5138 8.04736 11.6219 8.17913 11.6858 8.33331C11.7496 8.48748 11.7663 8.65713 11.7338 8.82081C11.7012 8.98448 11.6209 9.13482 11.5029 9.25282C11.3849 9.37082 11.2345 9.45118 11.0709 9.48374C10.9072 9.51629 10.7375 9.49958 10.5834 9.43572C10.4292 9.37186 10.2974 9.26371 10.2047 9.12496C10.112 8.98621 10.0625 8.82308 10.0625 8.6562C10.0625 8.43242 10.1514 8.21781 10.3096 8.05958C10.4679 7.90134 10.6825 7.81245 10.9062 7.81245ZM10.9062 10.6249C11.0731 10.6249 11.2363 10.6744 11.375 10.7671C11.5138 10.8599 11.6219 10.9916 11.6858 11.1458C11.7496 11.3 11.7663 11.4696 11.7338 11.6333C11.7012 11.797 11.6209 11.9473 11.5029 12.0653C11.3849 12.1833 11.2345 12.2637 11.0709 12.2962C10.9072 12.3288 10.7375 12.3121 10.5834 12.2482C10.4292 12.1844 10.2974 12.0762 10.2047 11.9375C10.112 11.7987 10.0625 11.6356 10.0625 11.4687C10.0625 11.2449 10.1514 11.0303 10.3096 10.8721C10.4679 10.7138 10.6825 10.6249 10.9062 10.6249ZM10.9062 13.4374C11.0731 13.4374 11.2363 13.4869 11.375 13.5796C11.5138 13.6724 11.6219 13.8041 11.6858 13.9583C11.7496 14.1125 11.7663 14.2821 11.7338 14.4458C11.7012 14.6095 11.6209 14.7598 11.5029 14.8778C11.3849 14.9958 11.2345 15.0762 11.0709 15.1087C10.9072 15.1413 10.7375 15.1246 10.5834 15.0607C10.4292 14.9969 10.2974 14.8887 10.2047 14.75C10.112 14.6112 10.0625 14.4481 10.0625 14.2812C10.0625 14.0574 10.1514 13.8428 10.3096 13.6846C10.4679 13.5263 10.6825 13.4374 10.9062 13.4374ZM8.09375 10.6249C8.26063 10.6249 8.42376 10.6744 8.56251 10.7671C8.70127 10.8599 8.80941 10.9916 8.87327 11.1458C8.93713 11.3 8.95384 11.4696 8.92129 11.6333C8.88873 11.797 8.80837 11.9473 8.69037 12.0653C8.57237 12.1833 8.42203 12.2637 8.25836 12.2962C8.09469 12.3288 7.92504 12.3121 7.77086 12.2482C7.61669 12.1844 7.48491 12.0762 7.3922 11.9375C7.29948 11.7987 7.25 11.6356 7.25 11.4687C7.25 11.2449 7.33889 11.0303 7.49713 10.8721C7.65536 10.7138 7.86997 10.6249 8.09375 10.6249ZM8.09375 13.4374C8.26063 13.4374 8.42376 13.4869 8.56251 13.5796C8.70127 13.6724 8.80941 13.8041 8.87327 13.9583C8.93713 14.1125 8.95384 14.2821 8.92129 14.4458C8.88873 14.6095 8.80837 14.7598 8.69037 14.8778C8.57237 14.9958 8.42203 15.0762 8.25836 15.1087C8.09469 15.1413 7.92504 15.1246 7.77086 15.0607C7.61669 14.9969 7.48491 14.8887 7.3922 14.75C7.29948 14.6112 7.25 14.4481 7.25 14.2812C7.25 14.0574 7.33889 13.8428 7.49713 13.6846C7.65536 13.5263 7.86997 13.4374 8.09375 13.4374ZM5.28125 10.6249C5.44813 10.6249 5.61126 10.6744 5.75001 10.7671C5.88877 10.8599 5.99691 10.9916 6.06077 11.1458C6.12463 11.3 6.14134 11.4696 6.10879 11.6333C6.07623 11.797 5.99587 11.9473 5.87787 12.0653C5.75987 12.1833 5.60953 12.2637 5.44586 12.2962C5.28219 12.3288 5.11254 12.3121 4.95836 12.2482C4.80419 12.1844 4.67241 12.0762 4.5797 11.9375C4.48699 11.7987 4.4375 11.6356 4.4375 11.4687C4.4375 11.2449 4.52639 11.0303 4.68463 10.8721C4.84286 10.7138 5.05747 10.6249 5.28125 10.6249ZM5.28125 13.4374C5.44813 13.4374 5.61126 13.4869 5.75001 13.5796C5.88877 13.6724 5.99691 13.8041 6.06077 13.9583C6.12463 14.1125 6.14134 14.2821 6.10879 14.4458C6.07623 14.6095 5.99587 14.7598 5.87787 14.8778C5.75987 14.9958 5.60953 15.0762 5.44586 15.1087C5.28219 15.1413 5.11254 15.1246 4.95836 15.0607C4.80419 14.9969 4.67241 14.8887 4.5797 14.75C4.48699 14.6112 4.4375 14.4481 4.4375 14.2812C4.4375 14.0574 4.52639 13.8428 4.68463 13.6846C4.84286 13.5263 5.05747 13.4374 5.28125 13.4374Z" fill="black"/>
</svg>
