<svg width="56" height="22" viewBox="0 0 56 22" fill="none" xmlns="http://www.w3.org/2000/svg">
<path d="M7.90089 5.54826V8.4559C7.0284 8.22195 6.18946 8.25537 5.35053 8.52274C4.84717 8.68985 4.37737 8.92379 4.00824 9.29143C3.57199 9.7259 3.37065 10.2272 3.37065 10.8288C3.37065 14.2378 3.37065 17.6133 3.37065 21.0222V21.323H0.0149144C0.0149144 21.2562 0.0149144 21.1893 0.0149144 21.0891C0.0149144 17.5799 -0.018643 14.0706 0.0149144 10.528C0.0484717 8.623 0.988077 7.1859 2.63239 6.18326C3.33709 5.74879 4.14247 5.58168 4.94784 5.448C5.85389 5.31431 6.7935 5.31431 7.69955 5.48142C7.7331 5.51484 7.80022 5.51484 7.90089 5.54826Z" fill="white"/>
<path d="M8.94116 16.0424V10.6282C8.94116 7.05213 11.8942 5.34766 14.7801 5.34766C17.6661 5.34766 20.552 7.05213 20.552 10.6282V14.8393H12.0956V15.9087C12.0956 17.3124 13.3707 18.1479 14.713 18.1479C15.8204 18.1479 16.8943 17.7469 17.4647 16.6106L20.0822 18.1814C18.9748 20.2869 16.6929 21.323 14.7801 21.323C11.8607 21.323 8.94116 19.5851 8.94116 16.0424ZM17.5318 10.695C17.5318 9.25793 16.1895 8.52266 14.8137 8.52266C13.4378 8.52266 12.0284 9.22451 12.0956 10.7619V12.1656H17.5318V10.695Z" fill="white"/>
<path d="M31.76 5.74854H35.2835L29.7466 21.2894H26.3237L20.8203 5.74854H24.3103L27.4647 14.8057L28.1694 16.7107L28.7063 14.8057L31.76 5.74854Z" fill="white"/>
<path d="M49.2214 10.8881L56 0.126465H50.4966L46.8724 6.5099L47.1744 7.07806L49.2214 10.8881Z" fill="white"/>
<path d="M47.1408 14.7313L46.8052 15.3998L50.463 21.85H55.9999L49.1878 11.1553L47.1408 14.7313Z" fill="white"/>
<path d="M47.2624 10.9956L45.5174 14.0369L41.4905 21.6903H35.92L42.363 10.8953L35.9871 0H41.4905L45.5174 7.72028L47.2624 10.9956Z" fill="#FF4438"/>
</svg>
