<svg width="56" height="22" viewBox="0 0 56 22" fill="none" xmlns="http://www.w3.org/2000/svg">
<path d="M7.90089 5.54801V8.45565C7.0284 8.2217 6.18946 8.25512 5.35053 8.52249C4.84717 8.68959 4.37737 8.92354 4.00824 9.29117C3.57199 9.72565 3.37065 10.227 3.37065 10.8285C3.37065 14.2375 3.37065 17.613 3.37065 21.022V21.3228H0.0149144C0.0149144 21.2559 0.0149144 21.1891 0.0149144 21.0888C0.0149144 17.5796 -0.018643 14.0704 0.0149144 10.5278C0.0484717 8.62275 0.988077 7.18564 2.63239 6.18301C3.33709 5.74853 4.14247 5.58143 4.94784 5.44774C5.85389 5.31406 6.7935 5.31406 7.69955 5.48116C7.7331 5.51459 7.80022 5.51459 7.90089 5.54801Z" fill="white"/>
<path d="M8.94115 16.0422V10.628C8.94115 7.05196 11.8942 5.34748 14.7801 5.34748C17.6661 5.34748 20.552 7.05196 20.552 10.628V14.8391H12.0955V15.9086C12.0955 17.3122 13.3707 18.1478 14.713 18.1478C15.8204 18.1478 16.8942 17.7467 17.4647 16.6104L20.0822 18.1812C18.9748 20.2867 16.6929 21.3228 14.7801 21.3228C11.8606 21.3228 8.94115 19.5849 8.94115 16.0422ZM17.5318 10.6949C17.5318 9.25775 16.1895 8.52249 14.8137 8.52249C13.4378 8.52249 12.0284 9.22433 12.0955 10.7617V12.1654H17.5318V10.6949Z" fill="white"/>
<path d="M31.76 5.74854H35.2835L29.7466 21.2894H26.3237L20.8203 5.74854H24.3103L27.4647 14.8057L28.1694 16.7107L28.7063 14.8057L31.76 5.74854Z" fill="white"/>
<path d="M49.2214 10.8879L56 0.126278H50.4965L46.8724 6.50971L47.1744 7.07787L49.2214 10.8879Z" fill="white"/>
<path d="M47.1408 14.7313L46.8052 15.3997L50.463 21.85H56L49.1878 11.1553L47.1408 14.7313Z" fill="white"/>
<path d="M47.2624 10.9956L45.5174 14.0369L41.4905 21.6903H35.92L42.363 10.8953L35.9871 0H41.4905L45.5174 7.72028L47.2624 10.9956Z" fill="#FF4438"/>
</svg>
