<svg width="42" height="48" viewBox="0 0 42 48" fill="none" xmlns="http://www.w3.org/2000/svg">
<path d="M0 3.93443L21 0L42 3.93443V24C42 34.3869 27.375 43.6721 21 48C14 43.1475 0 34.2295 0 24V3.93443Z" fill="#FF4438"/>
<path d="M8.01953 17.4C8.01953 17.4 12.8795 17.48 20.9995 15.38C29.1395 13.26 33.7995 9.26001 33.7995 9.26001" stroke="#1F2833" stroke-width="1.5" stroke-miterlimit="10" stroke-linecap="round" stroke-linejoin="round"/>
<path d="M33.9997 12.36V8.95999H30.2197" stroke="#1F2833" stroke-width="1.5" stroke-miterlimit="10" stroke-linecap="round" stroke-linejoin="round"/>
<path d="M27.54 31.88H34V14.72C34 14.72 31.7 16.7 27.54 18.52V31.88Z" stroke="#1F2833" stroke-width="1.5" stroke-miterlimit="10" stroke-linecap="round" stroke-linejoin="round"/>
<path d="M20.9997 20.64C19.8197 20.9 18.7397 21.12 17.7197 21.3V31.9H24.1797V19.78C23.1797 20.1 22.1197 20.38 20.9997 20.64Z" stroke="#1F2833" stroke-width="1.5" stroke-miterlimit="10" stroke-linecap="round" stroke-linejoin="round"/>
<path d="M8.05957 22.36V31.88H14.5196V21.82C10.5596 22.38 8.35957 22.36 8.05957 22.36Z" stroke="#1F2833" stroke-width="1.5" stroke-miterlimit="10" stroke-linecap="round" stroke-linejoin="round"/>
</svg>
