<svg width="42" height="48" viewBox="0 0 42 48" fill="none" xmlns="http://www.w3.org/2000/svg">
<path d="M0 3.93443L21 0L42 3.93443V24C42 34.3869 27.375 43.6721 21 48C14 43.1475 0 34.2295 0 24V3.93443Z" fill="#FF4438"/>
<path d="M8.02002 17.3998C8.02002 17.3998 12.88 17.4798 21 15.3798C29.14 13.2598 33.8 9.25977 33.8 9.25977" stroke="#1F2833" stroke-width="1.5" stroke-miterlimit="10" stroke-linecap="round" stroke-linejoin="round"/>
<path d="M34 12.36V8.95996H30.22" stroke="#1F2833" stroke-width="1.5" stroke-miterlimit="10" stroke-linecap="round" stroke-linejoin="round"/>
<path d="M27.54 31.8802H34V14.7202C34 14.7202 31.7 16.7002 27.54 18.5202V31.8802Z" stroke="#1F2833" stroke-width="1.5" stroke-miterlimit="10" stroke-linecap="round" stroke-linejoin="round"/>
<path d="M21 20.6398C19.82 20.8998 18.74 21.1198 17.72 21.2998V31.8998H24.18V19.7798C23.18 20.0998 22.12 20.3798 21 20.6398Z" stroke="#1F2833" stroke-width="1.5" stroke-miterlimit="10" stroke-linecap="round" stroke-linejoin="round"/>
<path d="M8.06 22.3598V31.8798H14.52V21.8198C10.56 22.3798 8.36 22.3598 8.06 22.3598Z" stroke="#1F2833" stroke-width="1.5" stroke-miterlimit="10" stroke-linecap="round" stroke-linejoin="round"/>
</svg>
