<svg width="20" height="20" viewBox="0 0 20 20" fill="none" xmlns="http://www.w3.org/2000/svg">
<path fill-rule="evenodd" clip-rule="evenodd" d="M6.25 0L0 6.25V13.75L6.25 20H13.75L20 13.75V6.25L13.75 0H6.25ZM10.8055 9.59375V4.3125C10.8055 3.88086 10.3997 3.5 9.93979 3.5C9.45281 3.5 9.07405 3.88086 9.07405 4.3125V9.59375C9.07405 9.82227 8.85761 10 8.64118 10C8.39769 10 8.20831 9.82227 8.20831 9.59375V5.125C8.20831 4.69336 7.80249 4.3125 7.34256 4.3125C6.85558 4.3125 6.47682 4.69336 6.47682 5.125V12.0312V12.1582L4.8265 10.6855C4.39362 10.3047 3.71726 10.3301 3.31144 10.7363C2.87857 11.1426 2.90563 11.7773 3.3385 12.1582L6.3686 14.875C7.53194 15.9414 9.1011 16.5 10.6973 16.5H11.2384C13.8627 16.5 16 14.5195 16 12.0312V6.75C16 6.31836 15.5942 5.9375 15.1343 5.9375C14.6473 5.9375 14.2685 6.31836 14.2685 6.75V9.59375C14.2685 9.82227 14.0521 10 13.8356 10C13.5921 10 13.4028 9.82227 13.4028 9.59375V5.125C13.4028 4.69336 12.997 4.3125 12.537 4.3125C12.05 4.3125 11.6713 4.69336 11.6713 5.125V9.59375C11.6713 9.82227 11.4548 10 11.2384 10C10.9949 10 10.8055 9.82227 10.8055 9.59375Z" fill="#36434E"/>
</svg>
