<svg width="21" height="18" viewBox="0 0 21 18" fill="none" xmlns="http://www.w3.org/2000/svg">
<path fill-rule="evenodd" clip-rule="evenodd" d="M9.33333 0C8.02083 0 7 1.01953 7 2.25V15.75C7 17.0156 8.02083 18 9.33333 18H18.6667C19.9427 18 21 17.0156 21 15.75V2.25C21 1.01953 19.9427 0 18.6667 0H9.33333ZM4.375 1.6875C3.86458 1.6875 3.5 2.07422 3.5 2.53125V15.4688C3.5 15.9609 3.86458 16.3125 4.375 16.3125C4.84896 16.3125 5.25 15.9609 5.25 15.4688V2.53125C5.25 2.07422 4.84896 1.6875 4.375 1.6875ZM0.875 3.375C0.364583 3.375 0 3.76172 0 4.21875V13.7812C0 14.2734 0.364583 14.625 0.875 14.625C1.34896 14.625 1.75 14.2734 1.75 13.7812V4.21875C1.75 3.76172 1.34896 3.375 0.875 3.375ZM10.2794 5.83578C10.4834 5.83578 10.6582 5.75125 10.7747 5.63856L12.8727 3.3846C13.1349 3.10286 13.1058 2.68025 12.8436 2.42668C12.5522 2.17311 12.1151 2.20128 11.8529 2.45485L10.2503 4.20166L9.58007 3.58183C9.31783 3.30008 8.88076 3.30008 8.61851 3.58183C8.32713 3.8354 8.32713 4.25801 8.61851 4.51158L9.78404 5.63856C9.90059 5.77943 10.1046 5.86395 10.2794 5.83578ZM10.2794 11.2437C10.4834 11.2437 10.6582 11.1592 10.7747 11.0465L12.8727 8.79251C13.1349 8.51076 13.1058 8.05997 12.8436 7.83458C12.5522 7.58101 12.1151 7.60918 11.8529 7.86275L10.2503 9.60956L9.58007 8.96155C9.31783 8.70798 8.88076 8.70798 8.61851 8.96155C8.32713 9.2433 8.32713 9.66591 8.61851 9.91948L9.78404 11.0465C9.90059 11.1873 10.1046 11.2719 10.2794 11.2437ZM14.0091 4.03262C14.0091 4.42706 14.3005 4.7088 14.7084 4.7088H18.9007C19.2795 4.7088 19.6 4.42706 19.6 4.03262C19.6 3.66635 19.2795 3.35643 18.9007 3.35643H14.7084C14.3005 3.35643 14.0091 3.66635 14.0091 4.03262ZM14.7084 8.76433C14.3005 8.76433 14.0091 9.07425 14.0091 9.44052C14.0091 9.83496 14.3005 10.1167 14.7084 10.1167H18.9007C19.2795 10.1167 19.6 9.83496 19.6 9.44052C19.6 9.07425 19.2795 8.76433 18.9007 8.76433H14.7084ZM13.776 14.1722C13.368 14.1722 13.0767 14.4822 13.0767 14.8484C13.0767 15.2429 13.368 15.5246 13.776 15.5246H18.9007C19.2795 15.5246 19.6 15.2429 19.6 14.8484C19.6 14.4822 19.2795 14.1722 18.9007 14.1722H13.776ZM9.34697 14.8484C9.34697 15.3556 9.7549 15.75 10.2794 15.75C10.7747 15.75 11.2118 15.3556 11.2118 14.8484C11.2118 14.3695 10.7747 13.9468 10.2794 13.9468C9.7549 13.9468 9.34697 14.3695 9.34697 14.8484Z" fill="#0069F0"/>
</svg>
