<svg width="20" height="38" viewBox="0 0 20 38" fill="none" xmlns="http://www.w3.org/2000/svg">
<path d="M7.61607 12.4821C7.75 12.1875 8.04464 12 8.36607 12H11.6071C11.9286 12 12.2232 12.1875 12.3571 12.4821L12.5714 12.8571H15.1429C15.5982 12.8571 16 13.2589 16 13.7143C16 14.1964 15.5982 14.5714 15.1429 14.5714H4.85714C4.375 14.5714 4 14.1964 4 13.7143C4 13.2589 4.375 12.8571 4.85714 12.8571H7.42857L7.61607 12.4821ZM15.1429 15.4286L14.5536 24.5089C14.5268 25.2054 13.9643 25.7143 13.2679 25.7143H6.70536C6.00893 25.7143 5.44643 25.2054 5.41964 24.5089L4.85714 15.4286H15.1429Z" fill="#0069F0"/>
</svg>
