<svg width="22" height="20" viewBox="0 0 22 20" fill="none" xmlns="http://www.w3.org/2000/svg">
<path d="M10.65 19.65C9.4 19.65 8.229 19.4123 7.137 18.937C6.045 18.4617 5.095 17.8203 4.287 17.013C3.479 16.2043 2.83767 15.2543 2.363 14.163C1.88833 13.0717 1.65067 11.9007 1.65 10.65C1.65 9.4 1.88767 8.229 2.363 7.137C2.83833 6.045 3.47967 5.095 4.287 4.287C5.09567 3.479 6.04567 2.83767 7.137 2.363C8.22833 1.88833 9.39933 1.65067 10.65 1.65C11.9 1.65 13.071 1.88767 14.163 2.363C15.255 2.83833 16.205 3.48 17.013 4.288C17.821 5.096 18.4627 6.046 18.938 7.138C19.4133 8.23 19.6507 9.40067 19.65 10.65C19.65 11.9 19.4123 13.071 18.937 14.163C18.4617 15.255 17.8203 16.205 17.013 17.013C16.2043 17.821 15.2543 18.4627 14.163 18.938C13.0717 19.4133 11.9007 19.6507 10.65 19.65ZM13.45 14.85L14.85 13.45L11.65 10.25V5.65H9.65V11.05L13.45 14.85ZM4.25 0L5.65 1.4L1.4 5.65L0 4.25L4.25 0ZM17.05 0L21.3 4.25L19.9 5.65L15.65 1.4L17.05 0Z" fill="#36434E"/>
</svg>
