<svg width="16" height="20" viewBox="0 0 16 20" fill="none" xmlns="http://www.w3.org/2000/svg">
<path d="M2 2H0V0H16V2H14V4C14 5.615 13.184 6.915 12.156 7.977C11.453 8.703 10.598 9.372 9.731 10C10.598 10.628 11.453 11.297 12.156 12.023C13.184 13.085 14 14.385 14 16V18H16V20H0V18H2V16C2 14.385 2.816 13.085 3.844 12.023C4.547 11.297 5.402 10.628 6.269 10C5.402 9.372 4.547 8.703 3.844 7.977C2.816 6.915 2 5.615 2 4V2ZM4 2V4C4 4.685 4.26 5.335 4.771 6H11.229C11.739 5.335 12 4.685 12 4V2H4ZM8 11.222C6.955 11.96 6.008 12.663 5.281 13.414C5.10004 13.5995 4.92976 13.7952 4.771 14H11.229C11.0702 13.7952 10.8999 13.5995 10.719 13.414C9.992 12.663 9.045 11.96 8 11.222Z" fill="#36434E"/>
</svg>
