<svg width="25" height="18" viewBox="0 0 25 18" fill="none" xmlns="http://www.w3.org/2000/svg">
<path d="M0 2.56936C0 1.16424 1.09503 0 2.50293 0H20.0235C21.3923 0 22.5264 1.16424 22.5264 2.56936V5.17887C21.9007 5.25916 21.3531 5.54018 20.8838 6.02194L13.8052 13.2884C13.4924 13.6096 13.2577 14.011 13.1404 14.4526L12.9057 15.4162H2.50293C1.09503 15.4162 0 14.2921 0 12.8468V2.56936ZM10.0117 9.6351C10.0117 9.99642 10.2855 10.2774 10.6375 10.2774H13.1404C13.4533 10.2774 13.7661 9.99642 13.7661 9.6351C13.7661 9.31393 13.4533 8.99276 13.1404 8.99276H10.6375C10.2855 8.99276 10.0117 9.31393 10.0117 9.6351ZM10.6375 5.13872C10.2855 5.13872 10.0117 5.45989 10.0117 5.78106C10.0117 6.14238 10.2855 6.4234 10.6375 6.4234H16.8948C17.2077 6.4234 17.5205 6.14238 17.5205 5.78106C17.5205 5.45989 17.2077 5.13872 16.8948 5.13872H10.6375ZM5.6316 3.05111C5.1623 3.05111 4.81032 3.41243 4.81032 3.85404V4.09492C4.61478 4.17521 4.41924 4.21536 4.2237 4.33579C3.63707 4.57667 3.12867 5.09857 2.97223 5.82121C2.93312 6.22267 2.97223 6.62413 3.12867 6.98545C3.2851 7.34676 3.55886 7.58764 3.79351 7.78837C4.26281 8.10954 4.84943 8.27013 5.31873 8.43071H5.39695C5.94447 8.63144 6.29644 8.75188 6.53109 8.91247C6.64842 8.99276 6.68752 9.03291 6.68752 9.07305C6.68752 9.1132 6.72663 9.19349 6.68752 9.35408C6.68752 9.47451 6.60931 9.59495 6.37466 9.71539C6.14001 9.79568 5.74892 9.87598 5.24052 9.79568C5.00587 9.75554 4.61478 9.59495 4.2237 9.47451C4.14548 9.43437 4.06727 9.39422 3.98905 9.39422C3.55886 9.23364 3.12867 9.47451 2.97223 9.87598C2.85491 10.3176 3.08956 10.7592 3.48064 10.9198C3.51975 10.9198 3.59797 10.9198 3.67618 10.9599C3.94994 11.0804 4.45835 11.2409 4.81032 11.3212V11.5621C4.81032 12.0439 5.1623 12.4052 5.59249 12.4052C6.06179 12.4052 6.41377 12.0439 6.41377 11.5621V11.3614C6.60931 11.3212 6.80485 11.2409 7.00039 11.1607C7.62612 10.9198 8.09542 10.3979 8.25186 9.6351C8.29097 9.19349 8.29097 8.79203 8.13453 8.43071C7.9781 8.0694 7.70434 7.82852 7.46969 7.62779C6.96128 7.26647 6.33555 7.06574 5.86625 6.90515H5.82714C5.27962 6.74457 4.92765 6.62413 4.693 6.46355C4.57567 6.38325 4.53657 6.34311 4.53657 6.30296C4.53657 6.30296 4.49746 6.26281 4.53657 6.10223C4.53657 6.02194 4.61478 5.9015 4.84943 5.78106C5.08408 5.66062 5.47517 5.62047 5.98357 5.70077C6.14001 5.70077 6.68752 5.82121 6.80485 5.86135C7.23504 5.98179 7.66523 5.70077 7.78256 5.2993C7.89988 4.8577 7.62612 4.41609 7.23504 4.29565C7.0395 4.2555 6.64842 4.17521 6.41377 4.13506V3.85404C6.41377 3.41243 6.06179 3.05111 5.6316 3.05111ZM23.9734 6.90515L24.56 7.50735C25.1467 8.10954 25.1467 9.1132 24.56 9.75554L23.3868 10.9599L20.6101 8.10954L21.7833 6.90515C22.37 6.30296 23.3868 6.30296 23.9734 6.90515ZM14.6656 14.1716L19.7497 8.99276L22.5264 11.8431L17.4423 17.022C17.2859 17.1826 17.0903 17.303 16.8948 17.3833L14.5092 17.9855C14.3136 18.0257 14.079 17.9855 13.9226 17.8249C13.7661 17.6643 13.727 17.4235 13.7661 17.1826L14.3528 14.7738C14.3919 14.5731 14.5092 14.3322 14.6656 14.1716Z" fill="#0069F0"/>
</svg>
