<svg width="21" height="21" viewBox="0 0 21 21" fill="none" xmlns="http://www.w3.org/2000/svg">
<path d="M6.35 1.42L4.95 0L4.09 0.71L5.51 2.14M14.82 16.53C13.61 17.53 12.05 18.14 10.35 18.14C8.49348 18.14 6.71301 17.4025 5.40025 16.0897C4.0875 14.777 3.35 12.9965 3.35 11.14C3.35 9.44 3.96 7.88 4.96 6.67M1.27 0.43L0 1.71L1.35 3.04L0.22 3.97L1.64 5.39L2.75 4.45L3.55 5.25C2.12958 6.88332 1.34814 8.97544 1.35 11.14C1.35 13.5269 2.29821 15.8161 3.98604 17.504C5.67387 19.1918 7.96305 20.14 10.35 20.14C12.6 20.14 14.66 19.31 16.24 17.94L18.44 20.14L19.71 18.87L2.24 1.41L1.27 0.43ZM20.35 3.86L15.75 0L14.46 1.53L19.06 5.39L20.35 3.86ZM10.35 4.14C12.2065 4.14 13.987 4.8775 15.2997 6.19025C16.6125 7.50301 17.35 9.28349 17.35 11.14C17.35 11.98 17.19 12.79 16.92 13.54L18.44 15.06C19.02 13.87 19.35 12.55 19.35 11.14C19.35 8.75305 18.4018 6.46387 16.714 4.77604C15.0261 3.08821 12.7369 2.14 10.35 2.14C8.94 2.14 7.62 2.47 6.43 3.05L7.95 4.57C8.7 4.3 9.51 4.14 10.35 4.14Z" fill="#36434E"/>
</svg>
