<svg width="20" height="19" viewBox="0 0 20 19" fill="none" xmlns="http://www.w3.org/2000/svg">
<path d="M9.51196 0.579218C9.82431 0.473594 10.1757 0.473594 10.488 0.579218L19.2337 3.95917C19.7803 4.17042 20.0927 4.69853 19.9755 5.22665C19.8584 5.75477 19.3508 6.10685 18.7652 6.10685V6.38851C18.7652 6.88142 18.3357 7.2335 17.8281 7.2335H2.21089C1.66429 7.2335 1.27386 6.88142 1.27386 6.38851V6.10685C0.649168 6.10685 0.141607 5.75477 0.0244778 5.22665C-0.0926516 4.69853 0.219694 4.17042 0.766297 3.95917L9.51196 0.579218ZM5.022 8.36015V15.12H6.58372V8.36015H9.08249V15.12H10.9566V8.36015H13.4553V15.12H15.017V8.36015H17.4768V15.2961C17.5158 15.2961 17.5548 15.2961 17.5548 15.3313L19.4289 16.4579C19.8974 16.7396 20.0927 17.2325 19.9365 17.7254C19.7803 18.1831 19.3118 18.5 18.7652 18.5H1.27386C0.688211 18.5 0.219694 18.1831 0.063521 17.7254C-0.0926516 17.2325 0.102564 16.7396 0.571082 16.4579L2.44515 15.3313C2.44515 15.2961 2.4842 15.2961 2.52324 15.2961V8.36015H5.022ZM10.0195 4.9802C10.6833 4.9802 11.2689 4.48729 11.2689 3.85355C11.2689 3.25501 10.6833 2.72689 10.0195 2.72689C9.31674 2.72689 8.77014 3.25501 8.77014 3.85355C8.77014 4.48729 9.31674 4.9802 10.0195 4.9802Z" fill="#0069F0"/>
</svg>
