<svg width="18" height="19" viewBox="0 0 18 19" fill="none" xmlns="http://www.w3.org/2000/svg">
<path d="M18 4.35712C18 3.67513 17.7291 3.02108 17.2468 2.53884C16.7646 2.0566 16.1106 1.78569 15.4286 1.78569H14.7857V1.16091C14.7857 0.814972 14.5197 0.518052 14.1738 0.500775C14.0869 0.496588 14 0.51009 13.9185 0.540466C13.8369 0.570842 13.7624 0.617458 13.6994 0.677489C13.6364 0.737521 13.5862 0.809718 13.552 0.889706C13.5177 0.969694 13.5 1.05581 13.5 1.14283V1.78569H4.5V1.16091C4.5 0.814972 4.23402 0.518052 3.88808 0.500775C3.80116 0.496588 3.71429 0.51009 3.63275 0.540466C3.5512 0.570842 3.47667 0.617458 3.41367 0.677489C3.35067 0.737521 3.30051 0.809718 3.26624 0.889706C3.23197 0.969694 3.21429 1.05581 3.21429 1.14283V1.78569H2.57143C1.88944 1.78569 1.23539 2.0566 0.753154 2.53884C0.270918 3.02108 0 3.67513 0 4.35712V4.83926C0 4.88188 0.0169324 4.92276 0.0470722 4.9529C0.0772119 4.98304 0.11809 4.99997 0.160714 4.99997H17.8393C17.8819 4.99997 17.9228 4.98304 17.9529 4.9529C17.9831 4.92276 18 4.88188 18 4.83926V4.35712ZM0 15.9285C0 16.6105 0.270918 17.2646 0.753154 17.7468C1.23539 18.2291 1.88944 18.5 2.57143 18.5H15.4286C16.1106 18.5 16.7646 18.2291 17.2468 17.7468C17.7291 17.2646 18 16.6105 18 15.9285V6.40622C18 6.37425 17.9873 6.3436 17.9647 6.32099C17.9421 6.29839 17.9114 6.28569 17.8795 6.28569H0.120536C0.0885677 6.28569 0.057909 6.29839 0.0353042 6.32099C0.0126993 6.3436 0 6.37425 0 6.40622V15.9285ZM13.8214 7.5714C14.0121 7.5714 14.1986 7.62795 14.3572 7.73391C14.5157 7.83987 14.6393 7.99047 14.7123 8.16667C14.7853 8.34287 14.8044 8.53676 14.7672 8.72381C14.73 8.91086 14.6381 9.08268 14.5033 9.21754C14.3684 9.3524 14.1966 9.44424 14.0096 9.48144C13.8225 9.51865 13.6286 9.49955 13.4524 9.42657C13.2762 9.35359 13.1256 9.22999 13.0197 9.07141C12.9137 8.91284 12.8571 8.7264 12.8571 8.53569C12.8571 8.27994 12.9587 8.03467 13.1396 7.85383C13.3204 7.67299 13.5657 7.5714 13.8214 7.5714ZM13.8214 10.7857C14.0121 10.7857 14.1986 10.8422 14.3572 10.9482C14.5157 11.0542 14.6393 11.2048 14.7123 11.381C14.7853 11.5572 14.8044 11.751 14.7672 11.9381C14.73 12.1251 14.6381 12.297 14.5033 12.4318C14.3684 12.5667 14.1966 12.6585 14.0096 12.6957C13.8225 12.7329 13.6286 12.7138 13.4524 12.6409C13.2762 12.5679 13.1256 12.4443 13.0197 12.2857C12.9137 12.1271 12.8571 11.9407 12.8571 11.75C12.8571 11.4942 12.9587 11.249 13.1396 11.0681C13.3204 10.8873 13.5657 10.7857 13.8214 10.7857ZM10.6071 7.5714C10.7979 7.5714 10.9843 7.62795 11.1429 7.73391C11.3014 7.83987 11.425 7.99047 11.498 8.16667C11.571 8.34287 11.5901 8.53676 11.5529 8.72381C11.5157 8.91086 11.4239 9.08268 11.289 9.21754C11.1541 9.3524 10.9823 9.44424 10.7953 9.48144C10.6082 9.51865 10.4143 9.49955 10.2381 9.42657C10.0619 9.35359 9.91133 9.22999 9.80537 9.07141C9.69941 8.91284 9.64286 8.7264 9.64286 8.53569C9.64286 8.27994 9.74445 8.03467 9.92529 7.85383C10.1061 7.67299 10.3514 7.5714 10.6071 7.5714ZM10.6071 10.7857C10.7979 10.7857 10.9843 10.8422 11.1429 10.9482C11.3014 11.0542 11.425 11.2048 11.498 11.381C11.571 11.5572 11.5901 11.751 11.5529 11.9381C11.5157 12.1251 11.4239 12.297 11.289 12.4318C11.1541 12.5667 10.9823 12.6585 10.7953 12.6957C10.6082 12.7329 10.4143 12.7138 10.2381 12.6409C10.0619 12.5679 9.91133 12.4443 9.80537 12.2857C9.69941 12.1271 9.64286 11.9407 9.64286 11.75C9.64286 11.4942 9.74445 11.249 9.92529 11.0681C10.1061 10.8873 10.3514 10.7857 10.6071 10.7857ZM10.6071 14C10.7979 14 10.9843 14.0565 11.1429 14.1625C11.3014 14.2684 11.425 14.419 11.498 14.5952C11.571 14.7714 11.5901 14.9653 11.5529 15.1524C11.5157 15.3394 11.4239 15.5113 11.289 15.6461C11.1541 15.781 10.9823 15.8728 10.7953 15.91C10.6082 15.9472 10.4143 15.9281 10.2381 15.8551C10.0619 15.7822 9.91133 15.6586 9.80537 15.5C9.69941 15.3414 9.64286 15.155 9.64286 14.9643C9.64286 14.7085 9.74445 14.4632 9.92529 14.2824C10.1061 14.1016 10.3514 14 10.6071 14ZM7.39286 10.7857C7.58357 10.7857 7.77001 10.8422 7.92859 10.9482C8.08716 11.0542 8.21076 11.2048 8.28374 11.381C8.35673 11.5572 8.37582 11.751 8.33861 11.9381C8.30141 12.1251 8.20957 12.297 8.07471 12.4318C7.93985 12.5667 7.76803 12.6585 7.58098 12.6957C7.39393 12.7329 7.20004 12.7138 7.02384 12.6409C6.84764 12.5679 6.69704 12.4443 6.59108 12.2857C6.48513 12.1271 6.42857 11.9407 6.42857 11.75C6.42857 11.4942 6.53017 11.249 6.711 11.0681C6.89184 10.8873 7.13711 10.7857 7.39286 10.7857ZM7.39286 14C7.58357 14 7.77001 14.0565 7.92859 14.1625C8.08716 14.2684 8.21076 14.419 8.28374 14.5952C8.35673 14.7714 8.37582 14.9653 8.33861 15.1524C8.30141 15.3394 8.20957 15.5113 8.07471 15.6461C7.93985 15.781 7.76803 15.8728 7.58098 15.91C7.39393 15.9472 7.20004 15.9281 7.02384 15.8551C6.84764 15.7822 6.69704 15.6586 6.59108 15.5C6.48513 15.3414 6.42857 15.155 6.42857 14.9643C6.42857 14.7085 6.53017 14.4632 6.711 14.2824C6.89184 14.1016 7.13711 14 7.39286 14ZM4.17857 10.7857C4.36929 10.7857 4.55572 10.8422 4.7143 10.9482C4.87288 11.0542 4.99647 11.2048 5.06946 11.381C5.14244 11.5572 5.16154 11.751 5.12433 11.9381C5.08712 12.1251 4.99528 12.297 4.86042 12.4318C4.72557 12.5667 4.55375 12.6585 4.36669 12.6957C4.17964 12.7329 3.98576 12.7138 3.80956 12.6409C3.63336 12.5679 3.48275 12.4443 3.3768 12.2857C3.27084 12.1271 3.21429 11.9407 3.21429 11.75C3.21429 11.4942 3.31588 11.249 3.49672 11.0681C3.67756 10.8873 3.92283 10.7857 4.17857 10.7857ZM4.17857 14C4.36929 14 4.55572 14.0565 4.7143 14.1625C4.87288 14.2684 4.99647 14.419 5.06946 14.5952C5.14244 14.7714 5.16154 14.9653 5.12433 15.1524C5.08712 15.3394 4.99528 15.5113 4.86042 15.6461C4.72557 15.781 4.55375 15.8728 4.36669 15.91C4.17964 15.9472 3.98576 15.9281 3.80956 15.8551C3.63336 15.7822 3.48275 15.6586 3.3768 15.5C3.27084 15.3414 3.21429 15.155 3.21429 14.9643C3.21429 14.7085 3.31588 14.4632 3.49672 14.2824C3.67756 14.1016 3.92283 14 4.17857 14Z" fill="#0069F0"/>
</svg>
