<svg width="18" height="18" viewBox="0 0 18 18" fill="none" xmlns="http://www.w3.org/2000/svg">
<path fill-rule="evenodd" clip-rule="evenodd" d="M9 18C13.9706 18 18 13.9706 18 9C18 7.70769 17.7276 6.479 17.2372 5.3682L8.51951 14.0858C8.09142 14.5496 7.34225 14.5496 6.91416 14.0858L2.34783 9.51951C1.88406 9.09142 1.88406 8.34225 2.34783 7.91416C2.77592 7.45039 3.52508 7.45039 3.95318 7.91416L7.73467 11.66L16.0232 3.37145C14.3737 1.31594 11.8405 0 9 0C4.02944 0 0 4.02944 0 9C0 13.9706 4.02944 18 9 18Z" fill="#257A00"/>
</svg>
