<svg width="18" height="18" viewBox="0 0 18 18" fill="none" xmlns="http://www.w3.org/2000/svg">
<path fill-rule="evenodd" clip-rule="evenodd" d="M17 1H1V17H17V1ZM10.5265 8.99456L14.1302 5.39081C14.5764 4.97896 14.5764 4.25821 14.1302 3.84635C13.7184 3.40017 12.9976 3.40017 12.5857 3.84635L8.982 7.4501L5.34394 3.84635C4.93208 3.40017 4.21133 3.40017 3.79948 3.84635C3.3533 4.25821 3.3533 4.97896 3.79948 5.39081L7.40322 8.99456L3.79948 12.6326C3.3533 13.0445 3.3533 13.7652 3.79948 14.1771C4.21133 14.6233 4.93208 14.6233 5.34394 14.1771L8.982 10.5733L12.5857 14.1771C12.9976 14.6233 13.7184 14.6233 14.1302 14.1771C14.5764 13.7652 14.5764 13.0445 14.1302 12.6326L10.5265 8.99456Z" fill="#C21405"/>
</svg>
