<svg width="23" height="20" viewBox="0 0 23 20" fill="none" xmlns="http://www.w3.org/2000/svg">
<path d="M12 14.2188C12.5586 14.2188 13.0312 14.6914 12.9883 15.25C12.9883 15.8516 12.5586 16.2812 12 16.2812C11.4414 16.2812 10.9688 15.8516 10.9688 15.25C10.9688 14.6914 11.3984 14.2188 12 14.2188ZM12 12.5C11.6133 12.5 11.3125 12.1992 11.3125 11.8125V5.625C11.3125 5.28125 11.6562 4.9375 12 4.9375C12.3008 4.9375 12.6445 5.28125 12.6445 5.625V11.8125C12.6445 12.1992 12.3438 12.5 12 12.5ZM22.6562 15.8516C23.0859 16.582 23.0859 17.4414 22.6562 18.1719C22.2266 18.9453 21.4531 19.375 20.5938 19.375H3.40625C2.50391 19.375 1.73047 18.9453 1.30078 18.1719C0.871094 17.4414 0.871094 16.582 1.30078 15.8516L9.89453 1.32812C10.3242 0.597656 11.0977 0.125 12 0.125C12.8594 0.167969 13.6328 0.597656 14.0625 1.32812L22.6562 15.8516ZM21.4531 17.4844C21.668 17.1836 21.625 16.8398 21.4531 16.5391L12.8594 2.01562C12.6875 1.71484 12.3438 1.54297 12 1.5C11.6133 1.5 11.2695 1.71484 11.0977 2.01562L2.50391 16.5391C2.33203 16.8398 2.28906 17.1836 2.50391 17.4844C2.67578 17.8281 3.01953 18 3.40625 18H20.5508C20.9375 18 21.2812 17.8281 21.4531 17.4844Z" fill="#855F00"/>
</svg>
